# xmcd
#
# Track frame offsets:
#	150
#	15313
#	26004
#	48452
#	70441
#	83843
#	104565
#	118072
#	135618
#	151382
#	167791
#	185157
#
# Disc length: 2766 seconds
#
# Revision: 0
# Processed by: cddbd v1.5.2PL0 Copyright (c) Steve Scherf et al.
# Submitted via: EasyCDDAExtractor 2010.4.0.0
#
DISCID=a40acc0c
DTITLE=Buddy Knox -  Buddy's Blues
DYEAR=2011
DGENRE=Blues
TTITLE0=Squeaky Chair Blues
TTITLE1=Buddy's Got The Bues Again
TTITLE2=Break These Chains
TTITLE3=Love Affair
TTITLE4=Live The Life You Want
TTITLE5=Feeling Fine Bout Being Poor
TTITLE6=Let Them Talk
TTITLE7=Tell Me
TTITLE8=I Ain't Drunk
TTITLE9=It's My Time Now
TTITLE10=(Come On) Let The Good Times Roll
TTITLE11=My Women's Got A Black Cat Bone
EXTD=
EXTT0=
EXTT1=
EXTT2=
EXTT3=
EXTT4=
EXTT5=
EXTT6=
EXTT7=
EXTT8=
EXTT9=
EXTT10=
EXTT11=
PLAYORDER=
